<?xml version="1.0" encoding="UTF-8" standalone="no"?>
<svg
   xmlns:dc="http://purl.org/dc/elements/1.1/"
   xmlns:cc="http://creativecommons.org/ns#"
   xmlns:rdf="http://www.w3.org/1999/02/22-rdf-syntax-ns#"
   xmlns:svg="http://www.w3.org/2000/svg"
   xmlns="http://www.w3.org/2000/svg"
   xmlns:sodipodi="http://sodipodi.sourceforge.net/DTD/sodipodi-0.dtd"
   xmlns:inkscape="http://www.inkscape.org/namespaces/inkscape"
   version="1.1"
   id="Capa_1"
   x="0px"
   y="0px"
   viewBox="0 0 72 72"
   style="enable-background:new 0 0 72 72;"
   xml:space="preserve"
   sodipodi:docname="Analyze.svg"
   inkscape:version="1.0.2-2 (e86c870879, 2021-01-15)"><metadata
   id="metadata13"><rdf:RDF><cc:Work
       rdf:about=""><dc:format>image/svg+xml</dc:format><dc:type
         rdf:resource="http://purl.org/dc/dcmitype/StillImage" /><dc:title></dc:title></cc:Work></rdf:RDF></metadata><defs
   id="defs11"><style
     type="text/css"
     id="style15">
   <![CDATA[
    .fil0 {fill:white}
   ]]>
  </style></defs><sodipodi:namedview
   pagecolor="#ffffff"
   bordercolor="#666666"
   borderopacity="1"
   objecttolerance="10"
   gridtolerance="10"
   guidetolerance="10"
   inkscape:pageopacity="0"
   inkscape:pageshadow="2"
   inkscape:window-width="1920"
   inkscape:window-height="1027"
   id="namedview9"
   showgrid="false"
   inkscape:pagecheckerboard="true"
   inkscape:zoom="2.1114994"
   inkscape:cx="-100.01515"
   inkscape:cy="28.391786"
   inkscape:window-x="-8"
   inkscape:window-y="-8"
   inkscape:window-maximized="1"
   inkscape:current-layer="Capa_1" />
<style
   type="text/css"
   id="style2">
	.st0{fill:#FFFFFF;}
</style>


<g
   style="clip-rule:evenodd;fill-rule:evenodd;image-rendering:optimizeQuality;shape-rendering:geometricPrecision;text-rendering:geometricPrecision"
   id="g44"
   transform="matrix(0.0034,0,0,0.0034,-59.315209,-15.19254)"><g
     id="Layer_x0020_1">
  <metadata
   id="CorelCorpID_0Corel-Layer" />
  <g
   id="_2172352822128">
   <path
   class="fil0"
   d="M 19347.88,23384.91 V 7134.9 c 0,-345.19 279.8,-625 625,-625 l 9375,0.01 v 2500 c 0,690.35 559.65,1250 1250,1250 h 2500 v 1875 l 1250,-0.01 v -2500 c 0.97,-166.13 -64.26,-325.81 -181.26,-443.75 l -3750,-3750 c -117.92,-116.99 -277.61,-182.18 -443.74,-181.24 H 19972.87 c -1035.54,0 -1874.99,839.49 -1874.99,1874.99 v 16250 c 0,1035.55 839.45,1875.01 1875,1875.01 h 4375 v -1250 h -4375.01 c -345.15,0 -624.99,-279.81 -624.99,-625 z"
   id="path20" />
   <path
   class="fil0"
   d="m 36847.88,17759.91 h -1250 v 1250 h 1250 v 1250 h -2500 v -3750 h 3750 c 0,-690.35 -559.65,-1250 -1250,-1250 h -2500 c -690.35,0 -1250,559.65 -1250,1250 v 3750 c 0,690.35 559.65,1250 1250,1250 h 2500 c 690.35,0 1250,-559.65 1250,-1250 v -1250 c 0,-690.35 -559.65,-1250 -1250,-1250 z"
   id="path22" />
   <path
   class="fil0"
   d="m 29972.88,15259.91 c -1380.7,0 -2500,1119.3 -2500,2500 v 1250 c 0,1380.7 1119.3,2500 2500,2500 1380.7,0 2500,-1119.3 2500,-2500 v -1250 c 0,-1380.7 -1119.3,-2500 -2500,-2500 z m 1250,3750 c 0,690.35 -559.65,1250 -1250,1250 -690.35,0 -1250,-559.65 -1250,-1250 v -1250 c 0,-690.35 559.65,-1250 1250,-1250 690.35,0 1250,559.65 1250,1250 z"
   id="path24" />
   <path
   class="fil0"
   d="m 24347.88,15259.91 h -1250 v 5625 c 0,345.2 279.8,625 625,625 h 3125 v -1250 h -2500 z"
   id="path26" />
  </g>
 </g></g></svg>
