<?xml version="1.0" encoding="UTF-8" standalone="no"?>
<svg
   xmlns:dc="http://purl.org/dc/elements/1.1/"
   xmlns:cc="http://creativecommons.org/ns#"
   xmlns:rdf="http://www.w3.org/1999/02/22-rdf-syntax-ns#"
   xmlns:svg="http://www.w3.org/2000/svg"
   xmlns="http://www.w3.org/2000/svg"
   xmlns:sodipodi="http://sodipodi.sourceforge.net/DTD/sodipodi-0.dtd"
   xmlns:inkscape="http://www.inkscape.org/namespaces/inkscape"
   version="1.1"
   id="Layer_1"
   x="0px"
   y="0px"
   viewBox="0 0 100 72"
   xml:space="preserve"
   sodipodi:docname="Battery.svg"
   width="100"
   height="72"
   inkscape:version="1.0.2-2 (e86c870879, 2021-01-15)"><metadata
   id="metadata14"><rdf:RDF><cc:Work
       rdf:about=""><dc:format>image/svg+xml</dc:format><dc:type
         rdf:resource="http://purl.org/dc/dcmitype/StillImage" /><dc:title></dc:title></cc:Work></rdf:RDF></metadata><defs
   id="defs12"><style
     type="text/css"
     id="style16">
   <![CDATA[
    .fil0 {fill:#FEFEFE}
   ]]>
  </style></defs><sodipodi:namedview
   pagecolor="#ffffff"
   bordercolor="#666666"
   borderopacity="1"
   objecttolerance="10"
   gridtolerance="10"
   guidetolerance="10"
   inkscape:pageopacity="0"
   inkscape:pageshadow="2"
   inkscape:window-width="1920"
   inkscape:window-height="1027"
   id="namedview10"
   showgrid="false"
   inkscape:pagecheckerboard="true"
   inkscape:zoom="8.4459977"
   inkscape:cx="35.922199"
   inkscape:cy="42.761414"
   inkscape:window-x="-8"
   inkscape:window-y="-8"
   inkscape:window-maximized="1"
   inkscape:current-layer="Layer_1" />
<style
   type="text/css"
   id="style2">
	.st0{fill:none;}
	.st1{fill:#FFFFFF;stroke:#FFFFFF;stroke-width:6;stroke-miterlimit:10;}
	.st2{fill:#FFFFFF;stroke:#FFFFFF;stroke-width:2;}
</style>
<path
   id="rect4360"
   inkscape:connector-curvature="0"
   class="st0"
   d="m 14.4,65.5 v -55 c 0,-1.6 1.9,-2.9 4.2,-2.9 h 34.7 c 2.4,0 4.2,1.3 4.2,2.9 v 55 c 0,1.6 -1.9,2.9 -4.2,2.9 H 18.7 c -2.4,0 -4.3,-1.3 -4.3,-2.9 z" />


<g
   style="clip-rule:evenodd;fill-rule:evenodd;image-rendering:optimizeQuality;shape-rendering:geometricPrecision;text-rendering:geometricPrecision"
   id="g34"
   transform="matrix(0.00603162,0,0,0.00750639,-77.721897,-77.490981)"><g
     id="Layer_x0020_1">
  <metadata
   id="CorelCorpID_0Corel-Layer" />
  <path
   class="fil0"
   d="m 26995.99,13387.44 h -1411.23 c 0,-650.65 104.77,-1181.77 -259.91,-1546.46 -111.84,-111.83 -347.69,-259.91 -558.6,-259.91 H 13758.63 c -213.54,0 -424,126.55 -557.98,260.53 -136.8,136.8 -260.53,339.91 -260.53,557.98 v 5588.48 c 0,398.47 418.99,818.52 818.51,818.52 h 11007.62 c 274.92,0 602.1,-221.56 725.27,-488.4 153.5,-332.55 93.24,-849.5 93.24,-1317.98 h 1411.23 c 176.26,0 395.15,-218.89 395.15,-395.15 v -2822.46 c 0,-176.26 -218.89,-395.15 -395.15,-395.15 z m -8980.09,2092.21 c 0,53 19.78,100.33 83.61,100.33 h 1153.83 l -152.21,1461.91 c -8.17,67.76 2.47,135.07 93.69,135.07 76.19,0 172.43,-220.03 211.6,-290.06 l 682.61,-1215.39 c 128.77,-223.33 281.64,-518.46 408.53,-728.57 16.99,-28.14 28.02,-52.29 45,-80.42 l 90.37,-160.46 c 25.42,-46.86 41.82,-51.51 41.82,-108.7 0,-46.96 -36.65,-83.6 -83.62,-83.6 h -1170.56 c 1.06,-47.75 16.84,-138.34 23.62,-185.42 9.34,-65.01 16.34,-131.58 25.08,-192.31 18.21,-126.66 31.48,-256.72 49.07,-377.35 18.47,-126.55 34.57,-256.56 50.27,-376.14 11.5,-87.56 44.27,-310.68 44.27,-382.15 0,-81.57 -122.19,-121.2 -170.26,-36.48 l -321.44,564.83 c -148.07,246.3 -314.76,553.43 -461.9,808.99 l -556.21,973.89 c -20.29,34.31 -87.17,140.52 -87.17,172.03 z"
   id="path21" />
 </g></g></svg>
