<?xml version="1.0" encoding="UTF-8" standalone="no"?>
<svg
   xmlns:dc="http://purl.org/dc/elements/1.1/"
   xmlns:cc="http://creativecommons.org/ns#"
   xmlns:rdf="http://www.w3.org/1999/02/22-rdf-syntax-ns#"
   xmlns:svg="http://www.w3.org/2000/svg"
   xmlns="http://www.w3.org/2000/svg"
   xmlns:sodipodi="http://sodipodi.sourceforge.net/DTD/sodipodi-0.dtd"
   xmlns:inkscape="http://www.inkscape.org/namespaces/inkscape"
   width="500"
   height="500"
   viewBox="0 0 132.29167 132.29167"
   version="1.1"
   id="svg8"
   inkscape:version="1.0.2-2 (e86c870879, 2021-01-15)"
   sodipodi:docname="Gears.svg">
  <defs
     id="defs2">
    <style
       type="text/css"
       id="style10">
   <![CDATA[
    .str0 {stroke:#FEFEFE;stroke-width:500;stroke-miterlimit:2.61313}
    .fil0 {fill:white}
   ]]>
  </style>
  </defs>
  <sodipodi:namedview
     id="base"
     pagecolor="#ffffff"
     bordercolor="#666666"
     borderopacity="1.0"
     inkscape:pageopacity="0"
     inkscape:pageshadow="2"
     inkscape:zoom="0.35"
     inkscape:cx="400"
     inkscape:cy="560"
     inkscape:document-units="cm"
     inkscape:current-layer="layer1"
     inkscape:document-rotation="0"
     showgrid="false"
     inkscape:pagecheckerboard="true"
     inkscape:window-width="1267"
     inkscape:window-height="1041"
     inkscape:window-x="52"
     inkscape:window-y="0"
     inkscape:window-maximized="0"
     units="px" />
  <metadata
     id="metadata5">
    <rdf:RDF>
      <cc:Work
         rdf:about="">
        <dc:format>image/svg+xml</dc:format>
        <dc:type
           rdf:resource="http://purl.org/dc/dcmitype/StillImage" />
        <dc:title></dc:title>
      </cc:Work>
    </rdf:RDF>
  </metadata>
  <g
     inkscape:label="Layer 1"
     inkscape:groupmode="layer"
     id="layer1">
    <g
       style="clip-rule:evenodd;fill-rule:evenodd;image-rendering:optimizeQuality;shape-rendering:geometricPrecision;text-rendering:geometricPrecision"
       id="g87"
       transform="matrix(0.00688574,0,0,0.00671227,-115.65142,-37.056606)">
      <g
         id="Layer_x0020_1">
        <metadata
           id="CorelCorpID_0Corel-Layer" />
        <g
           id="_2172648962624">
          <g
             id="g23">
            <g
               id="g21">
              <g
                 id="g19">
                <path
                   class="fil0 str0"
                   d="m 35473.18,17515.13 -1766.92,-1381.67 c 23.24,-213.06 41.64,-462.14 41.64,-725.68 0,-263.53 -19.23,-512.6 -41.64,-725.67 l 1768.53,-1382.46 c 328.41,-259.52 418.89,-720.08 209.06,-1103.72 L 33846.42,9016.89 c -201.05,-366.03 -651.98,-533.44 -1062.87,-382.06 l -2084.92,837 C 30299.74,9183.48 29880.85,8940 29447.51,8745.37 l -317.18,-2211.46 c -52.05,-420.53 -417.29,-737.71 -849.02,-737.71 h -3684.43 c -431.73,0 -796.97,317.18 -848.22,729.69 l -317.97,2219.49 c -419.72,189.83 -832.19,429.33 -1249.51,727.29 l -2090.52,-839.4 c -399.67,-156.19 -854.65,8.82 -1054.88,375.64 l -1839.83,3183.84 c -217.05,366.85 -128.14,842.63 208.26,1108.52 l 1766.92,1380.88 c -28.04,270.74 -41.63,505.4 -41.63,725.68 0,220.28 13.63,454.93 40.05,725.68 l -1768.53,1383.28 c -327.61,259.47 -417.35,720 -208.29,1103.67 l 1837.42,3179.04 c 199.44,365.24 649.57,531.83 1062.87,382.06 l 2084.92,-837 c 398.89,287.56 818.6,531.04 1251.91,726.46 l 317.18,2210.67 c 52.08,420.51 417.32,737.69 849.01,737.69 h 3684.44 c 431.73,0 796.97,-317.18 848.22,-729.69 l 317.97,-2218.67 c 419.72,-189.83 832.19,-429.33 1249.51,-727.29 l 2090.52,839.4 c 398.1,154.58 854.65,-8.82 1054.88,-375.64 l 1847.04,-3195.07 c 204.28,-374.8 114.54,-835.37 -215.44,-1097.29 z m -484.59,704.84 -1907.91,3218.27 -2293.15,-921.1 c -129.76,-52.08 -277.12,-32.03 -389.27,51.25 -496.61,371.66 -976.36,651.18 -1468.17,852.24 -131.37,53.65 -225.09,173 -245.1,313.99 l -404.48,2483.81 -3738.12,-42.47 -350.03,-2440.55 c -20.84,-140.99 -113.73,-260.31 -245.1,-313.99 -511.82,-209.85 -1004.42,-495.79 -1464.98,-849.84 -71.3,-55.27 -157.81,-83.32 -244.31,-83.32 -50.46,0 -100.93,8.82 -149.77,28.84 l -2358.86,889.86 -1837.42,-3179.04 c -16.82,-31.24 -13.63,-67.28 5.59,-82.48 l 1943.94,-1519.42 c 110.54,-86.51 168.21,-225.88 150.6,-365.25 -42.47,-335.61 -61.69,-607.14 -61.69,-853.03 0,-245.88 20.01,-516.62 61.69,-853.03 17.61,-140.15 -40.06,-278.73 -150.6,-365.24 l -1953.46,-1593.07 1907.9,-3218.27 2293.15,921.1 c 130.55,52.86 277.13,32.85 390.06,-51.25 495.78,-372.45 976.36,-651.19 1468.17,-852.24 131.37,-54.48 224.26,-173.8 244.31,-313.99 l 405.3,-2484.6 3738.91,43.25 349.21,2441.35 c 20.83,140.98 113.72,260.3 245.09,313.99 511.03,209.05 1003.63,495 1464.99,849.84 112.93,86.5 261.12,107.34 393.28,53.65 l 2358.86,-889.86 1837.43,3179.03 c 16.82,31.24 13.63,66.49 -5.6,81.7 l -1943.94,1519.43 c -110.54,86.5 -168.21,225.08 -150.59,365.24 30.44,243.48 61.69,535.84 61.69,853.03 0,317.97 -31.24,609.55 -61.69,853.03 -17.62,139.37 40.05,278.73 150.59,365.24 l 1941.54,1518.63 c 20.76,16.81 24.77,52.85 11.94,75.27 z"
                   id="path15" />
                <path
                   class="fil0 str0"
                   d="m 26438.29,11402.95 c -2208.27,0 -4004.85,1796.58 -4004.85,4004.84 0,2208.26 1796.58,4004.84 4004.85,4004.84 2208.26,0 4004.84,-1796.58 4004.84,-4004.84 0,-2208.26 -1796.58,-4004.84 -4004.84,-4004.84 z m 0,7208.69 c -1766.93,0 -3203.86,-1436.94 -3203.86,-3203.85 0,-1766.91 1436.94,-3203.85 3203.86,-3203.85 1766.92,0 3203.85,1436.94 3203.85,3203.85 0,1766.91 -1436.93,3203.85 -3203.85,3203.85 z"
                   id="path17" />
              </g>
            </g>
          </g>
          <g
             id="g25" />
          <g
             id="g27" />
          <g
             id="g29" />
          <g
             id="g31" />
          <g
             id="g33" />
          <g
             id="g35" />
          <g
             id="g37" />
          <g
             id="g39" />
          <g
             id="g41" />
          <g
             id="g43" />
          <g
             id="g45" />
          <g
             id="g47" />
          <g
             id="g49" />
          <g
             id="g51" />
          <g
             id="g53" />
        </g>
      </g>
    </g>
  </g>
</svg>
