<?xml version="1.0" encoding="UTF-8" standalone="no"?>
<svg
   xmlns:dc="http://purl.org/dc/elements/1.1/"
   xmlns:cc="http://creativecommons.org/ns#"
   xmlns:rdf="http://www.w3.org/1999/02/22-rdf-syntax-ns#"
   xmlns:svg="http://www.w3.org/2000/svg"
   xmlns="http://www.w3.org/2000/svg"
   xmlns:sodipodi="http://sodipodi.sourceforge.net/DTD/sodipodi-0.dtd"
   xmlns:inkscape="http://www.inkscape.org/namespaces/inkscape"
   version="1.1"
   id="road-icon"
   x="0px"
   y="0px"
   viewBox="-255 447 500 500"
   xml:space="preserve"
   sodipodi:docname="Plan.svg"
   width="500"
   height="500"
   inkscape:version="1.0.2-2 (e86c870879, 2021-01-15)"><metadata
   id="metadata27"><rdf:RDF><cc:Work
       rdf:about=""><dc:format>image/svg+xml</dc:format><dc:type
         rdf:resource="http://purl.org/dc/dcmitype/StillImage" /><dc:title></dc:title></cc:Work></rdf:RDF></metadata><defs
   id="defs25"><style
     type="text/css"
     id="style40">
   <![CDATA[
    .str1 {stroke:white;stroke-width:500;stroke-miterlimit:2.61313}
    .str0 {stroke:white;stroke-width:1300;stroke-miterlimit:2.61313}
    .str2 {stroke:white;stroke-width:17.64;stroke-miterlimit:2.61313}
    .fil0 {fill:none}
    .fil1 {fill:#FEFEFE}
    .fil2 {fill:#332C2B}
    .fil3 {fill:white}
   ]]>
  </style></defs><sodipodi:namedview
   pagecolor="#ffffff"
   bordercolor="#666666"
   borderopacity="1"
   objecttolerance="10"
   gridtolerance="10"
   guidetolerance="10"
   inkscape:pageopacity="0"
   inkscape:pageshadow="2"
   inkscape:window-width="1920"
   inkscape:window-height="1027"
   id="namedview23"
   showgrid="false"
   inkscape:pagecheckerboard="true"
   inkscape:zoom="0.74652778"
   inkscape:cx="25.466957"
   inkscape:cy="335.07159"
   inkscape:window-x="-8"
   inkscape:window-y="-8"
   inkscape:window-maximized="1"
   inkscape:current-layer="road-icon" />
<style
   type="text/css"
   id="style2">
	.st0{fill:#FFFFFF;}
	.st1{fill:#FFFFFF;stroke:#FFFFFF;stroke-width:9;stroke-linecap:round;stroke-miterlimit:10;}
</style>




<g
   style="clip-rule:evenodd;fill-rule:evenodd;image-rendering:optimizeQuality;shape-rendering:geometricPrecision;text-rendering:geometricPrecision"
   id="g78"
   transform="matrix(0.02013125,0,0,0.02704862,-5440.2648,-819.54135)"><g
     id="Layer_x0020_1">
  <metadata
   id="CorelCorpID_0Corel-Layer" />
  <g
   id="_2192142055744">
   <path
   class="fil0 str0"
   d="m 279105.74,54629.38 -9516.97,46.99 c -3099.54,15.31 -2678.84,5052.22 -140.99,5052.22 2537.86,0 5122.71,0 5122.71,0 2749.35,94 2255.87,4370.75 70.5,4511.75 -2185.37,140.99 -14081.59,199.75 -14081.59,199.75"
   id="path45" />
   <path
   class="fil1"
   d="m 278211.8,49833.2 c 0,962.98 1208.57,826.63 1225.25,75.11 18.2,-820.82 -1225.25,-794.32 -1225.25,-75.11 z"
   id="path47" />
   <path
   class="fil2 str1"
   d="m 278939.42,54343.76 c -48.07,-32.19 -96.69,-104.66 -170.01,-177.23 l -337.01,-387.67 c -241.53,-314.7 -455.51,-555.3 -709.6,-905.82 -29.86,-41.2 -43,-67.12 -72.94,-108.22 l -355.42,-535.32 c -24.35,-40.7 -40.62,-69.3 -67.53,-113.65 -26.15,-43.11 -41.03,-74.12 -66.06,-115.11 -25.86,-42.36 -40.38,-76.8 -63.87,-117.29 -155.49,-267.98 -231.34,-444.81 -344.52,-727.39 -117.87,-294.29 -221.54,-705.99 -229.43,-1024.79 l 52.2,-491.79 c 162.29,-873.63 873.56,-1625.39 1729.9,-1848.18 48.34,-12.58 90.83,-25.02 144.77,-36.41 l 489.52,-54.47 477.02,51.89 c 49.08,9.11 105.95,26.04 145.2,35.96 862.33,218.22 1580.84,983.83 1741.97,1851.21 10.14,54.56 12.84,96.44 21.22,144.85 l 30.98,332.48 -59.68,484.32 -328.55,924.53 -590.89,1024.53 c -51.57,77.35 -92.36,138.7 -147.7,214.63 l -459.21,612.71 c -52.6,68.16 -103.86,130.63 -159.62,202.72 -53.54,69.21 -108.06,124.91 -157.41,189.83 z m -125.56,-7125.96 h 209.32 c 443.64,15.73 884.85,130.73 1274.36,332.78 28.72,14.9 70.93,42.88 103.45,62.63 162.75,98.78 369.32,238.63 505.18,370.47 31.66,30.72 51.55,52.18 82.72,83.34 33.06,33.06 59.46,56.68 90.83,90.33 l 430.64,611.1 c 20.66,43.36 28.65,71.12 50.89,115.17 403.03,798.12 330.99,1681.34 7.29,2488.14 -45.58,113.6 -89.64,221.1 -138.16,329.85 l -247.7,476.97 c -31.29,52.35 -57.55,91.98 -84.34,142.13 -201.23,376.83 -836.94,1271.97 -1083.17,1543.77 -37.12,40.98 -65.2,80.22 -100.71,125.75 l -110.67,130.89 c -45.62,47.23 -65.92,79.61 -113.5,128.06 -30.94,31.51 -29.56,36 -54.01,66.77 l -164.64,182.6 c -120.83,119.33 -373.1,449.11 -502.02,449.11 -179.12,0 -193.04,-64.72 -335.92,-207.59 -194.57,-194.57 -388.84,-427.99 -573.61,-634.19 -237.97,-265.56 -826.37,-1047.75 -1014.13,-1356.15 l -141.67,-220.67 c -17.59,-27.9 -33.06,-47.28 -47.82,-72.96 l -412.6,-764.99 c -267.29,-626.52 -403.15,-987 -403.15,-1695.39 0,-395.85 157.92,-900.25 332.79,-1237.35 14.9,-28.72 42.88,-70.92 62.62,-103.45 98.79,-162.74 238.64,-369.32 370.47,-505.17 l 264.57,-248.75 c 60.43,-58.43 127.5,-101.79 194.63,-152.61 71.07,-53.81 134.04,-87.83 212.05,-135.18 156.81,-95.19 101.57,-54.35 228.7,-118.55 343.77,-173.6 723.54,-263.18 1107.31,-276.86 z"
   id="path49" />
   <circle
   class="fil3 str2"
   cx="278824.53"
   cy="49903.5"
   r="655.02002"
   id="circle51" />
   <path
   class="fil1"
   d="m 260272.74,59737.86 c 0,962.98 1208.58,826.63 1225.25,75.12 18.2,-820.83 -1225.25,-794.33 -1225.25,-75.12 z"
   id="path53" />
   <path
   class="fil2 str1"
   d="m 261000.36,64248.42 c -48.06,-32.18 -96.68,-104.66 -170,-177.23 l -337.01,-387.67 c -241.53,-314.7 -455.52,-555.3 -709.6,-905.82 -29.86,-41.2 -43.01,-67.12 -72.95,-108.21 l -355.42,-535.33 c -24.35,-40.7 -40.62,-69.3 -67.52,-113.65 -26.15,-43.11 -41.03,-74.12 -66.06,-115.11 -25.87,-42.36 -40.38,-76.8 -63.87,-117.29 -155.49,-267.98 -231.34,-444.8 -344.53,-727.39 -117.86,-294.29 -221.53,-705.99 -229.43,-1024.79 l 52.2,-491.79 c 162.29,-873.63 873.57,-1625.39 1729.9,-1848.18 48.35,-12.58 90.84,-25.01 144.77,-36.41 l 489.52,-54.47 477.02,51.89 c 49.09,9.11 105.96,26.04 145.2,35.97 862.34,218.21 1580.85,983.82 1741.98,1851.2 10.13,54.56 12.83,96.44 21.21,144.85 l 30.99,332.49 -59.69,484.31 -328.54,924.53 -590.9,1024.53 c -51.56,77.35 -92.36,138.7 -147.7,214.64 l -459.21,612.7 c -52.6,68.16 -103.86,130.63 -159.62,202.72 -53.54,69.22 -108.05,124.91 -157.41,189.83 z m -125.56,-7125.96 h 209.32 c 443.64,15.74 884.85,130.73 1274.37,332.79 28.72,14.89 70.93,42.87 103.45,62.62 162.74,98.78 369.31,238.63 505.17,370.47 31.66,30.72 51.56,52.18 82.73,83.34 33.05,33.06 59.45,56.68 90.83,90.34 l 430.63,611.09 c 20.66,43.36 28.65,71.12 50.9,115.17 403.03,798.12 330.99,1681.34 7.29,2488.14 -45.58,113.6 -89.64,221.1 -138.16,329.85 l -247.71,476.98 c -31.28,52.34 -57.55,91.97 -84.33,142.12 -201.24,376.83 -836.95,1271.98 -1083.18,1543.78 -37.11,40.97 -65.2,80.21 -100.71,125.75 l -110.66,130.89 c -45.62,47.22 -65.93,79.6 -113.5,128.05 -30.95,31.51 -29.56,36.01 -54.01,66.77 l -164.64,182.6 c -120.84,119.33 -373.11,449.11 -502.03,449.11 -179.12,0 -193.04,-64.72 -335.91,-207.59 -194.58,-194.57 -388.85,-427.98 -573.61,-634.18 -237.98,-265.57 -826.38,-1047.76 -1014.14,-1356.16 l -141.66,-220.67 c -17.6,-27.9 -33.07,-47.28 -47.83,-72.96 l -412.6,-764.99 c -267.29,-626.51 -403.14,-986.99 -403.14,-1695.39 0,-395.85 157.92,-900.25 332.78,-1237.34 14.9,-28.73 42.88,-70.93 62.62,-103.45 98.79,-162.75 238.64,-369.33 370.47,-505.18 l 264.57,-248.74 c 60.43,-58.44 127.5,-101.8 194.63,-152.62 71.07,-53.81 134.04,-87.83 212.05,-135.18 156.81,-95.19 101.57,-54.35 228.7,-118.55 343.78,-173.59 723.55,-263.17 1107.31,-276.86 z"
   id="path55" />
   <circle
   class="fil3 str2"
   cx="260885.47"
   cy="59808.16"
   r="655.02002"
   id="circle57" />
  </g>
 </g></g></svg>
