<?xml version="1.0" encoding="UTF-8" standalone="no"?>
<svg
   xmlns:dc="http://purl.org/dc/elements/1.1/"
   xmlns:cc="http://creativecommons.org/ns#"
   xmlns:rdf="http://www.w3.org/1999/02/22-rdf-syntax-ns#"
   xmlns:svg="http://www.w3.org/2000/svg"
   xmlns="http://www.w3.org/2000/svg"
   xmlns:sodipodi="http://sodipodi.sourceforge.net/DTD/sodipodi-0.dtd"
   xmlns:inkscape="http://www.inkscape.org/namespaces/inkscape"
   version="1.1"
   id="Layer_1"
   x="0px"
   y="0px"
   viewBox="0 0 72 72"
   style="enable-background:new 0 0 72 72;"
   xml:space="preserve"
   sodipodi:docname="LogDownloadIcon.svg"
   inkscape:version="1.0.2-2 (e86c870879, 2021-01-15)"><metadata
   id="metadata25"><rdf:RDF><cc:Work
       rdf:about=""><dc:format>image/svg+xml</dc:format><dc:type
         rdf:resource="http://purl.org/dc/dcmitype/StillImage" /><dc:title></dc:title></cc:Work></rdf:RDF></metadata><defs
   id="defs23"><style
     type="text/css"
     id="style27">
   <![CDATA[
    .fil0 {fill:#FEFEFE}
   ]]>
  </style></defs><sodipodi:namedview
   pagecolor="#ffffff"
   bordercolor="#666666"
   borderopacity="1"
   objecttolerance="10"
   gridtolerance="10"
   guidetolerance="10"
   inkscape:pageopacity="0"
   inkscape:pageshadow="2"
   inkscape:window-width="1920"
   inkscape:window-height="1027"
   id="namedview21"
   showgrid="false"
   inkscape:pagecheckerboard="true"
   inkscape:zoom="8.4459977"
   inkscape:cx="26.326911"
   inkscape:cy="36.699929"
   inkscape:window-x="-8"
   inkscape:window-y="-8"
   inkscape:window-maximized="1"
   inkscape:current-layer="_2172346353088" />
<style
   type="text/css"
   id="style2">
	.st0{fill:#FFFFFF;}
</style>

<g
   style="clip-rule:evenodd;fill-rule:evenodd;image-rendering:optimizeQuality;shape-rendering:geometricPrecision;text-rendering:geometricPrecision"
   id="g143"
   transform="matrix(0.0417674,0,0,0.0417674,-583.20479,-450.91236)"><g
     id="Layer_x0020_1"
     transform="matrix(0.1529079,0,0,0.1529079,11834.355,9210.2878)">
  <metadata
   id="CorelCorpID_0Corel-Layer" />
  <g
   id="_2172346353088">
   <g
   id="g36"
   transform="matrix(0.73924501,0,0,1,4371.8416,0)">
    <g
   id="g34">
     <path
   class="fil0"
   d="M 26997.28,10862.79 H 17696.2 c -513.68,0 -930.11,416.43 -930.11,930.11 0,513.68 416.43,930.11 930.11,930.11 h 9301.08 c 513.68,0 930.11,-416.43 930.11,-930.11 0,-513.68 -416.43,-930.11 -930.11,-930.11 z"
   id="path32" />
    </g>
   </g>
   <g
   id="g42">
    <g
   id="g40">
     <path
   class="fil0"
   d="m 15835.98,11792.9 c -1.04,-246.28 -99.72,-482.09 -274.38,-655.73 -362.77,-360.62 -948.68,-360.62 -1311.45,0 -174.68,173.64 -273.36,409.45 -274.38,655.73 -6.94,60.25 -6.94,121.11 0,181.37 10.52,60.6 27.67,119.87 51.16,176.72 24.97,55.08 54.53,107.98 88.36,158.11 33.4,52.15 72.37,100.48 116.26,144.17 42.32,42.15 89.09,79.59 139.52,111.61 48.98,35.67 102.08,65.35 158.12,88.36 61.64,31.98 127.36,55.46 195.32,69.76 60.26,6.74 121.12,6.74 181.37,0 245.61,0.21 481.33,-96.76 655.73,-269.73 43.89,-43.69 82.86,-92.02 116.26,-144.17 33.84,-50.13 63.39,-103.04 88.36,-158.11 29.68,-56.16 53.08,-115.42 69.76,-176.72 6.94,-60.25 6.94,-121.12 -0.01,-181.37 z"
   id="path38" />
    </g>
   </g>
   <g
   id="g48">
    <g
   id="g46">
     <path
   class="fil0"
   d="m 15835.98,15978.38 c 6.92,-60.25 6.92,-121.11 0,-181.37 -16.07,-60.02 -39.49,-117.8 -69.75,-172.07 -23.95,-57.06 -53.57,-111.58 -88.36,-162.77 -32.24,-51.56 -71.36,-98.5 -116.27,-139.52 -362.77,-360.62 -948.68,-360.62 -1311.45,0 -174.68,173.65 -273.36,409.46 -274.38,655.73 1.81,122.57 25.44,243.81 69.76,358.1 23.31,55.02 51.33,107.92 83.71,158.11 35.37,50.55 75.89,97.31 120.91,139.52 41.1,44.82 88.02,83.94 139.52,116.26 48.98,35.7 102.05,65.37 158.12,88.36 56.7,23.87 116.03,41.04 176.72,51.16 59.49,13.34 120.39,19.59 181.37,18.6 60.25,6.95 121.11,6.95 181.37,0 59.17,-10.15 116.96,-27.32 172.07,-51.16 57.58,-22.84 112.22,-52.52 162.77,-88.36 51.5,-32.32 98.42,-71.44 139.51,-116.26 44.83,-41.1 83.95,-88.01 116.27,-139.52 35.75,-48.94 65.42,-102.02 88.36,-158.11 31.77,-61.74 55.22,-127.43 69.75,-195.33 7.16,-60.25 7.16,-121.11 0,-181.37 z"
   id="path44" />
    </g>
   </g>
   <g
   id="g54">
    <g
   id="g52">
     <path
   class="fil0"
   d="m 15835.98,20163.86 c 6.89,-60.25 6.89,-121.11 0,-181.37 -16.07,-61.5 -39.49,-120.82 -69.75,-176.71 -24.97,-55.09 -54.53,-107.98 -88.36,-158.12 -32.32,-51.5 -71.44,-98.42 -116.27,-139.52 -362.77,-360.62 -948.68,-360.62 -1311.45,0 -44.82,41.1 -83.94,88.02 -116.26,139.52 -33.83,50.14 -63.39,103.04 -88.36,158.12 -24.12,56.62 -41.3,115.97 -51.16,176.71 -13.1,59.56 -19.32,120.39 -18.6,181.37 1.05,246.28 99.73,482.09 274.38,655.73 41.1,44.82 88.02,83.95 139.52,116.27 48.98,35.69 102.05,65.36 158.12,88.36 56.7,23.86 116.03,41.04 176.72,51.15 59.49,13.35 120.39,19.59 181.37,18.6 60.25,6.95 121.11,6.95 181.37,0 59.17,-10.14 116.96,-27.32 172.07,-51.15 57.58,-22.85 112.22,-52.52 162.77,-88.36 51.5,-32.32 98.42,-71.45 139.51,-116.27 44.83,-41.09 83.95,-88.01 116.27,-139.51 35.78,-48.92 65.45,-102.03 88.36,-158.12 31.74,-61.76 55.19,-127.43 69.75,-195.33 7.16,-60.25 7.16,-121.11 0,-181.37 z"
   id="path50" />
    </g>
   </g>
   <g
   id="g60"
   transform="matrix(0.68417373,0,0,1,5295.1716,0)">
    <g
   id="g58">
     <path
   class="fil0"
   d="M 27927.38,15048.27 H 17696.2 c -513.68,0 -930.11,416.43 -930.11,930.11 0,513.68 416.43,930.11 930.11,930.11 h 10231.18 c 513.68,0 930.11,-416.43 930.11,-930.11 0,-513.68 -416.43,-930.11 -930.11,-930.11 z"
   id="path56" />
    </g>
   </g>
   <g
   id="g66"
   transform="matrix(0.72099408,0,0,1,4677.8385,0)">
    <g
   id="g64">
     <path
   class="fil0"
   d="m 23741.9,19233.76 h -6045.7 c -513.68,0 -930.11,416.42 -930.11,930.1 0,513.68 416.43,930.11 930.11,930.11 h 6045.7 c 513.68,0 930.11,-416.43 930.11,-930.11 0,-513.68 -416.43,-930.1 -930.11,-930.1 z"
   id="path62" />
    </g>
   </g>
   <g
   id="g68">
   </g>
   <g
   id="g70">
   </g>
   <g
   id="g72">
   </g>
   <g
   id="g74">
   </g>
   <g
   id="g76">
   </g>
   <g
   id="g78">
   </g>
   <g
   id="g80">
   </g>
   <g
   id="g82">
   </g>
   <g
   id="g84">
   </g>
   <g
   id="g86">
   </g>
   <g
   id="g88">
   </g>
   <g
   id="g90">
   </g>
   <g
   id="g92">
   </g>
   <g
   id="g94">
   </g>
   <g
   id="g96">
   </g>
  </g>
 </g></g></svg>
