<?xml version="1.0" encoding="UTF-8" standalone="no"?>
<svg
   xmlns:dc="http://purl.org/dc/elements/1.1/"
   xmlns:cc="http://creativecommons.org/ns#"
   xmlns:rdf="http://www.w3.org/1999/02/22-rdf-syntax-ns#"
   xmlns:svg="http://www.w3.org/2000/svg"
   xmlns="http://www.w3.org/2000/svg"
   xmlns:sodipodi="http://sodipodi.sourceforge.net/DTD/sodipodi-0.dtd"
   xmlns:inkscape="http://www.inkscape.org/namespaces/inkscape"
   version="1.1"
   id="Layer_1"
   x="0px"
   y="0px"
   viewBox="0 0 72 72"
   style="enable-background:new 0 0 72 72;"
   xml:space="preserve"
   sodipodi:docname="action.svg"
   inkscape:version="1.0.2-2 (e86c870879, 2021-01-15)"><metadata
   id="metadata11"><rdf:RDF><cc:Work
       rdf:about=""><dc:format>image/svg+xml</dc:format><dc:type
         rdf:resource="http://purl.org/dc/dcmitype/StillImage" /><dc:title></dc:title></cc:Work></rdf:RDF></metadata><defs
   id="defs9"><style
     type="text/css"
     id="style13">
   <![CDATA[
    .fil0 {fill:white}
   ]]>
  </style></defs><sodipodi:namedview
   pagecolor="#ffffff"
   bordercolor="#666666"
   borderopacity="1"
   objecttolerance="10"
   gridtolerance="10"
   guidetolerance="10"
   inkscape:pageopacity="0"
   inkscape:pageshadow="2"
   inkscape:window-width="1920"
   inkscape:window-height="1027"
   id="namedview7"
   showgrid="false"
   inkscape:pagecheckerboard="true"
   inkscape:zoom="2.9861111"
   inkscape:cx="2.220355"
   inkscape:cy="53.871603"
   inkscape:window-x="-8"
   inkscape:window-y="-8"
   inkscape:window-maximized="1"
   inkscape:current-layer="Layer_1" />
<style
   type="text/css"
   id="style2">
	.st0{fill:#FFFFFF;}
</style>

<g
   style="clip-rule:evenodd;fill-rule:evenodd;image-rendering:optimizeQuality;shape-rendering:geometricPrecision;text-rendering:geometricPrecision"
   id="g31"
   transform="matrix(0.00240056,0,0,0.00220042,-7.9155849,1.5734189)"><g
     id="Layer_x0020_1">
  <metadata
   id="CorelCorpID_0Corel-Layer" />
  <path
   class="fil0"
   d="m 9087.89,17323.61 c 0,-666.35 458.91,-927.74 1074.22,-927.74 584.52,0 1799.28,704.33 2343.74,976.58 423.93,211.96 1976.11,1074.21 2343.76,1074.21 617.52,0 488.27,-843.14 488.27,-1464.84 l -2.28,-12014.01 c 1.99,-346.43 91.53,-534.19 252.16,-724.4 97.14,-115.04 14.83,-34.06 121.81,-122.34 68.23,-56.3 68.37,-53.79 143.33,-100.81 358.07,-224.6 935.47,-167.79 1263.42,196.79 432.6,480.9 272.35,1159.62 272.35,1924.93 0,769.79 -59.37,8534.99 31.23,8806.66 96.64,289.81 277.56,373.02 554.7,373.02 604.85,0 488.29,-807.49 488.29,-1416.01 l 4.81,-3901.45 c 140.47,-1192.31 1841.67,-1236.35 2035.03,-42.7 47.8,295.1 10.95,3320.77 10.95,3895.32 0,835.87 -132.64,1464.84 585.92,1464.84 232.36,0 375.12,-170.52 443.28,-337.97 217.4,-534.08 -191.51,-3718.75 191.87,-4349.14 l 198.46,-241 c 524.76,-467.03 1427.72,-284.83 1665.96,475.41 137.26,438 -45.52,3731.14 70.72,4079.68 151.58,454.48 737.59,515.92 965.59,100.31 108.97,-198.68 79.54,-329.17 77.76,-605.84 -3.53,-544.33 -81.51,-2347.42 111.21,-2720.83 498.94,-966.79 1939.22,-559.46 1939.22,425.56 v 9033.2 c 0,1430.42 -674.82,2899.62 -1623.52,3845.23 -550.29,548.49 -832.14,775.26 -1582.81,1151.56 -2416.53,1211.42 -5551.05,430.94 -7401.57,-1420.14 l -6591.8,-6591.78 c -225.14,-224.75 -476.08,-412.83 -476.08,-842.3 z m 5175.78,-292.97 c -636.34,-148.24 -2933.95,-1708.98 -4052.73,-1708.98 -638.84,0 -1192.78,103.71 -1660.28,634.64 -607.69,690.18 -719.43,1631.83 -206.12,2452.46 168.5,269.38 477.25,528.63 706.73,758.11 l 6884.82,6835.89 c 128.66,120.3 267.44,209.81 412.95,319.47 1077.38,811.95 2894.1,1499.43 4311.11,1499.43 1338.02,0 2170.3,-87.99 3401.79,-699.78 792.73,-393.81 1299.02,-808.07 1908.38,-1411.94 1209.51,-1198.62 1867.56,-3069.99 1867.56,-4773.05 v -8642.58 c 0,-1519.54 -1360.26,-2545.28 -2766.79,-2083.21 -226.02,74.25 -344.72,185.03 -504.69,227.76 -151.04,-648.35 -1023.3,-1367.19 -1806.64,-1367.19 -693.84,0 -727.45,29.11 -1318.36,341.79 -127.23,-546.1 -649.89,-1010.29 -1122.35,-1221.42 -630.9,-281.92 -1300.98,-195.4 -1856.16,98.37 0,-959 96.41,-2897.67 -33.22,-3677.72 -168.58,-1014.49 -1044.02,-1791.03 -1919.9,-1791.03 -737.44,0 -1125.89,128.97 -1648.41,646.53 -338.4,335.18 -567.21,781.64 -598.07,1403.86 -63.61,1282.25 0.38,2750.12 0.38,4053.12 0,2701.82 0,5403.65 0,8105.47 z"
   id="path18" />
 </g></g></svg>
