<?xml version="1.0" encoding="UTF-8" standalone="no"?>
<svg
   xmlns:dc="http://purl.org/dc/elements/1.1/"
   xmlns:cc="http://creativecommons.org/ns#"
   xmlns:rdf="http://www.w3.org/1999/02/22-rdf-syntax-ns#"
   xmlns:svg="http://www.w3.org/2000/svg"
   xmlns="http://www.w3.org/2000/svg"
   xmlns:sodipodi="http://sodipodi.sourceforge.net/DTD/sodipodi-0.dtd"
   xmlns:inkscape="http://www.inkscape.org/namespaces/inkscape"
   xml:space="preserve"
   width="100"
   height="100"
   version="1.1"
   style="clip-rule:evenodd;fill-rule:evenodd;image-rendering:optimizeQuality;shape-rendering:geometricPrecision;text-rendering:geometricPrecision"
   viewBox="0 0 2645.8333 2645.8334"
   id="svg14"
   sodipodi:docname="takeoff.svg"
   inkscape:version="1.0.2-2 (e86c870879, 2021-01-15)"><metadata
   id="metadata18"><rdf:RDF><cc:Work
       rdf:about=""><dc:format>image/svg+xml</dc:format><dc:type
         rdf:resource="http://purl.org/dc/dcmitype/StillImage" /><dc:title></dc:title></cc:Work></rdf:RDF></metadata><sodipodi:namedview
   pagecolor="#ffffff"
   bordercolor="#666666"
   borderopacity="1"
   objecttolerance="10"
   gridtolerance="10"
   guidetolerance="10"
   inkscape:pageopacity="0"
   inkscape:pageshadow="2"
   inkscape:window-width="1920"
   inkscape:window-height="1027"
   id="namedview16"
   showgrid="false"
   units="px"
   inkscape:pagecheckerboard="true"
   inkscape:zoom="2.6256746"
   inkscape:cx="155.97977"
   inkscape:cy="123.24145"
   inkscape:window-x="-8"
   inkscape:window-y="-8"
   inkscape:window-maximized="1"
   inkscape:current-layer="Layer_x0020_1"
   inkscape:document-rotation="0" />
 <defs
   id="defs4">
  <style
   type="text/css"
   id="style2">
   <![CDATA[
    .str0 {stroke:#FEFEFE;stroke-width:10;stroke-miterlimit:2.61313}
    .fil1 {fill:#FEFEFE}
    .fil0 {fill:#FEFEFE}
   ]]>
  </style>
 </defs>
 <g
   id="Layer_x0020_1"
   transform="matrix(0.09701498,0,0,0.09701498,4259.2963,2047.6016)">
  <metadata
   id="CorelCorpID_0Corel-Layer" />
  
  <g
   id="g23"
   transform="matrix(0.72988273,0,0,0.95503865,-43470.272,-20671.673)"><rect
     class="fil0 str0"
     x="3164.968"
     y="24393.689"
     width="29889.98"
     height="714.65997"
     id="rect7" /><g
     id="g11">
   <path
   class="fil1"
   d="m 4743.54,7116.22 c 123.56,428.51 258,638.16 258,638.16 l 12220.97,909 c 0,0 157.44,89.16 950.96,-278.22 571.17,-264.44 886.34,-596.02 1018.12,-761.04 102.52,-128.45 35.25,-103.38 206.53,-102.86 l 889.05,2.7 c 228.23,10.59 197.72,-6.22 151.81,163.14 -79.72,294.06 -186.21,913.41 139.59,1187.92 435.91,367.38 948.69,743.09 1273.6,738.76 258.52,-3.44 1063.26,-366.6 1402.57,-447.62 150.4,-35.91 134.96,-45.28 197.13,55.58 74.53,128.85 149.11,257.67 223.64,386.52 81.35,155.22 143.4,186.1 -36.58,328.76 l -283.44,200.8 c 0,0 -505.12,1094.8 -279.22,1490.87 112.93,198.02 1398.76,2303.69 2656.25,4359.78 882.5,1442.89 1752.92,2860.71 2193.35,3577.88 187.13,304.65 397.26,246.78 397.26,246.78 113.19,1.08 246.11,-111.71 351.86,-236.82 1322.93,-1384.17 2645.89,-2768.33 3968.81,-4152.5 210.31,-277.33 161.48,-251.93 35.84,-596.83 l -4258.09,-9598.6 c 0,0 240.59,-1605.77 -712.88,-2408.39 -953.47,-802.63 -1774.54,-494.12 -1774.54,-494.12 l -2000.8,446.28 -7233.08,-22.25 c -2210.19,-6.78 -4420.42,-13.59 -6630.62,-20.37 -465.79,10.66 -704.39,79.79 -1103.43,399.3 l -3999.76,3202.8 c 0,0 -346.46,356.08 -222.9,784.59 z M 28447.6,17937.54 31310.44,14942.2 27233.27,5751.43 c -105.43,-239.53 -132.62,-493.69 -92.84,-733.95 18.62,-154.73 89.17,-909.49 -264.57,-1207.26 -376.3,-316.77 -504.64,-265.73 -505.01,-265.6 -52.16,18.69 -104.74,33.82 -157.46,45.53 l 0.04,0.17 -2000.8,446.28 c -103.02,22.76 -205.87,32.46 -306.88,30.39 l -7205.5,-22.17 -6608.2,-20.3 c -94.46,2.2 -152.11,5.52 -172.61,12.67 -16.57,5.78 -60.32,37.8 -140.74,102.19 l -3049.39,2441.79 10584.61,787.29 c 153.55,10.84 298.94,48.03 432.15,106.73 -100.01,-58.88 -285.45,-189.69 -115.96,-268.16 166.11,-76.9 296.15,-164.52 394.53,-245.14 80.74,-66.17 124.99,-112.87 148.57,-141.79 137.2,-200.42 212.33,-306.98 518.32,-459.38 301.06,-149.99 424.17,-145.34 682.9,-135.92 19.26,0.69 2.8,1.48 23.69,1.54 l 889.05,2.7 c 18.7,0 37.3,0.48 55.81,1.27 l 0.05,-1.27 c 47.25,2.18 43.79,2.09 46.78,2.2 438.57,17.62 648.87,26.08 1024.84,430.21 518.31,557.08 437.13,826.44 280.36,1343.1 -13.22,43.55 28.51,-93.86 -1.73,17.71 -5.96,22.01 -12.39,47.41 -18.29,73.9 88.63,66.93 178.71,130.25 267.56,185.68 0.16,0.1 0.26,0.19 0.41,0.29 59.92,-33.51 138.57,-85.46 276.39,-136.61 35.09,-13.01 70.38,-24.32 105.79,-34.14 242.82,-89.8 470.16,-171.51 629.99,-209.67 283.22,-67.57 -78.69,22.25 30.94,-5 266.57,-66.3 405.22,-100.68 751.76,-2.98 510.01,143.86 608.08,303.97 811.74,637.4 l 9.33,15.22 c 5.16,8.45 10.16,16.95 15.1,25.47 l 0.14,-0.08 223.64,386.52 c 12.78,22.07 24.76,44.39 36.11,66.87 h 0.01 c -5.84,-12.97 -10.32,-23.68 2.44,-1.4 462.42,807.71 637.93,1114.14 -389.99,1928.92 -46.42,36.9 -94.62,70.04 -144.18,99.59 l -42.86,30.36 c 122.57,204.01 424.08,699.68 822.91,1353.81 492.75,808.17 1128.6,1848.64 1757.33,2876.67 441.24,721.44 879.49,1436.63 1262.45,2061.09 121.3,197.79 237.05,386.46 345.6,563.37 z M 21908.41,8300.11 c -57.28,11.84 -152.48,19.83 -71.47,18.75 24.2,-0.32 46.73,-7.19 71.47,-18.75 z m 2925.48,725.02 c 0.06,0.13 0.12,0.26 0.18,0.38 l -0.17,-0.38 z"
   id="path9" />
  </g></g>
 </g>
</svg>
