<?xml version="1.0" encoding="UTF-8" standalone="no"?>
<svg
   xmlns:dc="http://purl.org/dc/elements/1.1/"
   xmlns:cc="http://creativecommons.org/ns#"
   xmlns:rdf="http://www.w3.org/1999/02/22-rdf-syntax-ns#"
   xmlns:svg="http://www.w3.org/2000/svg"
   xmlns="http://www.w3.org/2000/svg"
   xmlns:sodipodi="http://sodipodi.sourceforge.net/DTD/sodipodi-0.dtd"
   xmlns:inkscape="http://www.inkscape.org/namespaces/inkscape"
   version="1.1"
   id="Layer_1"
   x="0px"
   y="0px"
   viewBox="0 0 100 65"
   xml:space="preserve"
   inkscape:version="1.0.2-2 (e86c870879, 2021-01-15)"
   sodipodi:docname="adsbVehicle.svg"
   width="100"
   height="65"><metadata
     id="metadata23"><rdf:RDF><cc:Work
         rdf:about=""><dc:format>image/svg+xml</dc:format><dc:type
           rdf:resource="http://purl.org/dc/dcmitype/StillImage" /><dc:title></dc:title></cc:Work></rdf:RDF></metadata><defs
     id="defs21"><style
       type="text/css"
       id="style37">
   <![CDATA[
    .str0 {stroke:white;stroke-width:1300;stroke-miterlimit:2.61313}
    .fil0 {fill:#FF8303}
   ]]>
  </style><style
       type="text/css"
       id="style57">
   <![CDATA[
    .str0 {stroke:white;stroke-width:1300;stroke-miterlimit:2.61313}
    .fil0 {fill:#FF8303}
   ]]>
  </style></defs><sodipodi:namedview
     pagecolor="#ffffff"
     bordercolor="#666666"
     borderopacity="1"
     objecttolerance="10"
     gridtolerance="10"
     guidetolerance="10"
     inkscape:pageopacity="0"
     inkscape:pageshadow="2"
     inkscape:window-width="1920"
     inkscape:window-height="1027"
     id="namedview19"
     showgrid="false"
     inkscape:zoom="3.2777778"
     inkscape:cx="61.850911"
     inkscape:cy="61.555239"
     inkscape:window-x="-8"
     inkscape:window-y="-8"
     inkscape:window-maximized="1"
     inkscape:current-layer="g5"
     inkscape:document-rotation="0"
     inkscape:pagecheckerboard="true" /><style
     type="text/css"
     id="style3">
	.st0{fill:#C72B27;}
	.st1{fill:#7F0036;}
	.st2{fill:#EE3424;}
</style><g
     id="g5"><g
       style="clip-rule:evenodd;fill-rule:evenodd;image-rendering:optimizeQuality;shape-rendering:geometricPrecision;text-rendering:geometricPrecision"
       id="g55"
       transform="matrix(0.00960102,0,0,0.00960102,-361.41882,-78.063972)"><g
         id="Layer_x0020_1"
         transform="translate(6849.347,-45.662314)">
  <metadata
   id="CorelCorpID_0Corel-Layer" />
  
 <g
   style="clip-rule:evenodd;fill-rule:evenodd;image-rendering:optimizeQuality;shape-rendering:geometricPrecision;text-rendering:geometricPrecision"
   id="g75"
   transform="translate(2557.0905,-1004.571)"><g
     id="Layer_x0020_1-7">
  <metadata
   id="CorelCorpID_0Corel-Layer-3" />
  <path
   class="fil0 str0"
   d="m 34363.246,10173.292 c 0,0 -397.292,-704.0298 -958.609,-721.8335 -561.32,-17.8003 -911.624,705.4735 -911.624,705.4735 l -3967.662,2842.762 c 0,0 -118.623,104.218 -118.664,147.788 -0.04,43.569 -1.873,2483.923 -1.873,2483.923 0,0 10.364,116.456 194.049,13.313 183.682,-103.144 3520.105,-1944.646 3520.105,-1944.646 0,0 69.082,-34.375 34.202,-95.765 -34.884,-61.39 -409.319,-493.074 113.644,-702.095 522.962,-209.02 590.754,-201.349 590.754,-201.349 0,0 127.308,386.065 207.01,386.73 79.699,0.662 687.868,28.032 728.352,-9.388 40.484,-37.419 230.258,-427.081 215.266,-489.682 -14.992,-62.598 606.643,324.913 606.643,324.913 0,0 367.701,165.841 199.087,472.619 -168.615,306.776 -102.717,184.153 -102.717,184.153 0,0 -101.345,92.349 55.185,144.604 156.531,52.254 3588.973,1986.825 3588.973,1986.825 0,0 92.096,84.582 91.919,-90.571 -0.174,-175.154 -2.321,-2404.01 -2.321,-2404.01 0,0 4.955,-115.501 -182.982,-248.86 -187.94,-133.362 -3898.737,-2784.904 -3898.737,-2784.904 z"
   id="path62"
   style="opacity:1;stroke-width:45.1464;stroke-miterlimit:2.61313;stroke-dasharray:none" />
 </g></g></g></g></g></svg>
