<?xml version="1.0" encoding="UTF-8" standalone="no"?>
<svg
   xmlns:dc="http://purl.org/dc/elements/1.1/"
   xmlns:cc="http://creativecommons.org/ns#"
   xmlns:rdf="http://www.w3.org/1999/02/22-rdf-syntax-ns#"
   xmlns:svg="http://www.w3.org/2000/svg"
   xmlns="http://www.w3.org/2000/svg"
   xmlns:sodipodi="http://sodipodi.sourceforge.net/DTD/sodipodi-0.dtd"
   xmlns:inkscape="http://www.inkscape.org/namespaces/inkscape"
   xml:space="preserve"
   width="100"
   height="100"
   version="1.1"
   style="clip-rule:evenodd;fill-rule:evenodd;image-rendering:optimizeQuality;shape-rendering:geometricPrecision;text-rendering:geometricPrecision"
   viewBox="0 0 2645.8333 2645.8334"
   id="svg13"
   sodipodi:docname="MapAddMission.svg"
   inkscape:version="1.0.2-2 (e86c870879, 2021-01-15)"><metadata
   id="metadata17"><rdf:RDF><cc:Work
       rdf:about=""><dc:format>image/svg+xml</dc:format><dc:type
         rdf:resource="http://purl.org/dc/dcmitype/StillImage" /><dc:title /></cc:Work></rdf:RDF></metadata><sodipodi:namedview
   pagecolor="#ffffff"
   bordercolor="#666666"
   borderopacity="1"
   objecttolerance="10"
   gridtolerance="10"
   guidetolerance="10"
   inkscape:pageopacity="0"
   inkscape:pageshadow="2"
   inkscape:window-width="1920"
   inkscape:window-height="1027"
   id="namedview15"
   showgrid="false"
   units="px"
   inkscape:pagecheckerboard="true"
   inkscape:zoom="3.7132646"
   inkscape:cx="15.42138"
   inkscape:cy="50.60149"
   inkscape:window-x="-8"
   inkscape:window-y="-8"
   inkscape:window-maximized="1"
   inkscape:current-layer="Layer_x0020_1"
   inkscape:document-rotation="0" />
 <defs
   id="defs4">
  <style
   type="text/css"
   id="style2">
   <![CDATA[
    .fil0 {fill:white}
   ]]>
  </style>
 </defs>
 <g
   id="Layer_x0020_1"
   transform="matrix(0.17639373,0,0,0.15875,-9031.8973,696.65523)">
  <metadata
   id="CorelCorpID_0Corel-Layer" />
  <g
   id="_2272201458816"
   transform="matrix(0.60522359,0,0,0.55056328,43726.745,-2269.1428)">
   <path
   class="fil0"
   d="m 24709.67,19880.02 c -124.37,-83.27 -250.17,-270.8 -439.87,-458.55 l -871.97,-1003.04 c -624.92,-814.26 -1178.59,-1436.78 -1835.99,-2343.7 -77.27,-106.61 -111.28,-173.66 -188.75,-280 l -919.59,-1385.09 c -63.01,-105.29 -105.1,-179.29 -174.72,-294.04 -67.66,-111.53 -106.16,-191.78 -170.92,-297.83 -66.93,-109.6 -104.48,-198.72 -165.26,-303.48 -402.31,-693.37 -598.56,-1150.87 -891.41,-1882.03 -304.96,-761.43 -573.19,-1826.65 -593.62,-2651.49 l 135.06,-1272.46 c 419.9,-2260.39 2260.23,-4205.48 4475.89,-4781.91 125.09,-32.56 235.02,-64.73 374.57,-94.21 l 1266.58,-140.93 1234.22,134.24 c 127,23.59 274.14,67.38 375.68,93.06 2231.18,564.6 4090.23,2545.53 4507.13,4789.75 26.23,141.17 33.22,249.52 54.9,374.79 l 80.17,860.26 -154.43,1253.1 -850.07,2392.11 -1528.86,2650.83 c -133.42,200.13 -238.97,358.86 -382.16,555.33 l -1188.14,1585.3 c -136.1,176.35 -268.73,337.99 -412.99,524.51 -138.54,179.09 -279.58,323.19 -407.28,491.16 z M 24384.79,1442.53 h 541.6 c 1147.85,40.71 2289.43,338.26 3297.24,861.04 74.31,38.55 183.52,110.94 267.67,162.03 421.07,255.59 955.55,617.44 1307.07,958.55 81.92,79.49 133.39,135 214.04,215.63 85.53,85.54 153.83,146.65 235.01,233.73 l 1114.21,1581.12 c 53.46,112.19 74.14,184.02 131.68,298 1042.79,2065.03 856.4,4350.24 18.87,6437.72 -117.93,293.93 -231.93,572.09 -357.47,853.46 l -640.91,1234.1 c -80.94,135.44 -148.91,237.98 -218.2,367.74 -520.67,974.99 -2165.48,3291.07 -2802.57,3994.31 -96.04,106.01 -168.7,207.54 -260.58,325.36 l -286.33,338.66 c -118.04,122.19 -170.58,205.97 -293.67,331.33 -80.06,81.53 -76.48,93.15 -139.74,172.76 l -425.99,472.45 c -312.64,308.76 -965.36,1162.01 -1298.93,1162.01 -463.44,0 -499.46,-167.45 -869.13,-537.11 -503.43,-503.43 -1006.08,-1107.35 -1484.14,-1640.87 -615.72,-687.12 -2138.13,-2710.93 -2623.94,-3508.87 l -366.53,-570.96 c -45.54,-72.19 -85.56,-122.34 -123.74,-188.77 l -1067.56,-1979.32 c -691.57,-1621.02 -1043.08,-2553.71 -1043.08,-4386.59 0,-1024.21 408.6,-2329.28 861.04,-3201.47 38.55,-74.32 110.95,-183.51 162.02,-267.66 255.61,-421.09 617.45,-955.57 958.55,-1307.08 l 684.53,-643.59 c 156.36,-151.2 329.89,-263.39 503.58,-394.88 183.89,-139.22 346.81,-227.25 548.65,-349.76 405.73,-246.28 262.8,-140.62 591.74,-306.72 889.47,-449.16 1872.07,-680.94 2865.01,-716.35 z"
   id="path7" />
   <path
   class="fil0"
   d="m 22209.66,9059.72 c -13.05,-67.48 38.04,-479.84 54.4,-570.62 100.8,-559.49 303.84,-847.42 631.72,-1243.29 90.51,-109.29 223.88,-216.02 328.76,-296.22 147.53,-112.83 218.21,-146.73 391.27,-233.73 777.8,-391.03 1736.4,-332.78 2444.74,133.59 988.65,650.95 1426.1,1989.97 954.1,3030.88 -605.6,1335.59 -2068.56,1899.63 -3242.78,1367.18 -110.7,-50.18 -306.49,-141.72 -413.08,-211.91 -137.64,-90.61 -221.01,-175.78 -345.83,-279.17 -484.94,-401.64 -679.95,-983.57 -769.28,-1574.49 -26.46,-175.06 -11.89,-7.86 -34.02,-122.22 z m -1250,-312.5 c 0,918.78 153.29,1642.66 680.12,2366.76 l 876.06,881.74 c 169.18,125.71 364.14,231.99 565.82,332.63 1415.82,706.48 3189.54,370.34 4286.85,-726.98 299.41,-299.4 535.35,-646.83 726.98,-1030.83 594.34,-1191.08 458.9,-2734.5 -315.94,-3799.47 -650.05,-893.49 -1755.71,-1578.54 -2874.57,-1578.54 -918.79,0 -1642.67,153.28 -2366.77,680.11 l -574.74,519.01 c -45.48,53.94 -67.32,69.35 -115.72,118.65 -79.15,80.6 -125.5,149.88 -191.28,238.4 -365.61,492.05 -696.81,1319.92 -696.81,1998.52 z"
   id="path9" />
  </g>
 </g>
</svg>
