<?xml version="1.0" encoding="UTF-8" standalone="no"?>
<svg
   xmlns:dc="http://purl.org/dc/elements/1.1/"
   xmlns:cc="http://creativecommons.org/ns#"
   xmlns:rdf="http://www.w3.org/1999/02/22-rdf-syntax-ns#"
   xmlns:svg="http://www.w3.org/2000/svg"
   xmlns="http://www.w3.org/2000/svg"
   xmlns:sodipodi="http://sodipodi.sourceforge.net/DTD/sodipodi-0.dtd"
   xmlns:inkscape="http://www.inkscape.org/namespaces/inkscape"
   xml:space="preserve"
   width="100"
   height="100"
   version="1.1"
   style="clip-rule:evenodd;fill-rule:evenodd;image-rendering:optimizeQuality;shape-rendering:geometricPrecision;text-rendering:geometricPrecision"
   viewBox="0 0 2645.8333 2645.8332"
   id="svg10"
   sodipodi:docname="MapCenter.svg"
   inkscape:version="1.0.2-2 (e86c870879, 2021-01-15)"><metadata
   id="metadata14"><rdf:RDF><cc:Work
       rdf:about=""><dc:format>image/svg+xml</dc:format><dc:type
         rdf:resource="http://purl.org/dc/dcmitype/StillImage" /><dc:title /></cc:Work></rdf:RDF></metadata><sodipodi:namedview
   pagecolor="#ffffff"
   bordercolor="#666666"
   borderopacity="1"
   objecttolerance="10"
   gridtolerance="10"
   guidetolerance="10"
   inkscape:pageopacity="0"
   inkscape:pageshadow="2"
   inkscape:window-width="1920"
   inkscape:window-height="1027"
   id="namedview12"
   showgrid="false"
   units="px"
   inkscape:pagecheckerboard="true"
   inkscape:zoom="5.2513492"
   inkscape:cx="66.99397"
   inkscape:cy="51.035453"
   inkscape:window-x="-8"
   inkscape:window-y="-8"
   inkscape:window-maximized="1"
   inkscape:current-layer="svg10"
   inkscape:document-rotation="0" />
 <defs
   id="defs4">
  <style
   type="text/css"
   id="style2">
   <![CDATA[
    .fil0 {fill:#FEFEFE}
   ]]>
  </style>
 </defs>
 <g
   id="Layer_x0020_1"
   transform="matrix(0.10576445,0,0,0.10583346,-1391.0265,266.82823)">
  <metadata
   id="CorelCorpID_0Corel-Layer" />
  <path
   class="fil0"
   d="m 21272.88,10332.49 c 0,-1483.41 230.65,-2357.66 1301.8,-3437.79 2072.71,-2090.05 5597.94,-1437.16 6910.94,1134.91 1461.76,2863.46 -666.75,6340.3 -3882.75,6340.3 -579.12,0 -1264.36,-184.76 -1689.46,-358.51 -1431.89,-585.26 -2640.53,-2158.83 -2640.53,-3678.91 z m 3393.78,-6494.97 c -875.52,72.85 -2049.23,619.53 -2734.2,1127.69 -810.53,601.31 -1298.58,1178.51 -1827.38,2093 -222.45,384.71 -633.4,1416.6 -646.1,1987 h -2867.17 c -1295.88,0 -1385.54,1930.93 117.04,1930.93 h 2750.13 c 20.08,901.96 842.69,2515.87 1505.85,3175.2 990.26,984.53 1441.88,1346.69 2859.5,1821.57 1021.29,342.11 870.19,-574.06 840.77,2904.09 -10.38,1228.94 1127.74,1373.53 1656.72,775.89 180.73,-204.17 221.65,-342.96 219.68,-716.52 -3.3,-624.94 -2.22,-1249.85 -2.42,-1874.84 -0.38,-1255.32 -138.4,-767.52 798.52,-1073.92 1427.59,-466.85 1883.48,-828.62 2873.72,-1807.36 673.86,-666.04 1514.94,-2283.49 1535.45,-3204.11 h 2750.13 c 347.05,0 560.79,-69.29 749.02,-245.7 798.24,-748.18 163.99,-1685.23 -631.99,-1685.23 H 31746.77 C 31718.73,7786.67 30661.4,6125.54 29658.4,5282.23 c -523.38,-440.06 -527.2,-425.63 -1140.19,-790.74 -389.24,-231.84 -1426.22,-607.97 -1979.13,-653.97 0,-799.69 -0.98,-1599.42 0.03,-2399.09 0.58,-459.68 53.38,-718.35 -147.55,-1022.71 -349.81,-529.89 -1172.33,-581.18 -1553.24,-34.37 -203.09,291.56 -172.3,563.69 -171.69,1057.08 1.01,799.67 0.03,1599.4 0.03,2399.09 z"
   id="path7" />
 </g>
</svg>
