<?xml version="1.0" encoding="UTF-8" standalone="no"?>
<svg
   xmlns:dc="http://purl.org/dc/elements/1.1/"
   xmlns:cc="http://creativecommons.org/ns#"
   xmlns:rdf="http://www.w3.org/1999/02/22-rdf-syntax-ns#"
   xmlns:svg="http://www.w3.org/2000/svg"
   xmlns="http://www.w3.org/2000/svg"
   xmlns:sodipodi="http://sodipodi.sourceforge.net/DTD/sodipodi-0.dtd"
   xmlns:inkscape="http://www.inkscape.org/namespaces/inkscape"
   xml:space="preserve"
   width="100"
   height="100"
   version="1.1"
   style="clip-rule:evenodd;fill-rule:evenodd;image-rendering:optimizeQuality;shape-rendering:geometricPrecision;text-rendering:geometricPrecision"
   viewBox="0 0 2645.8333 2645.8334"
   id="svg77"
   sodipodi:docname="MapSync.svg"
   inkscape:version="1.0.2-2 (e86c870879, 2021-01-15)"><metadata
   id="metadata81"><rdf:RDF><cc:Work
       rdf:about=""><dc:format>image/svg+xml</dc:format><dc:type
         rdf:resource="http://purl.org/dc/dcmitype/StillImage" /><dc:title /></cc:Work></rdf:RDF></metadata><sodipodi:namedview
   pagecolor="#ffffff"
   bordercolor="#666666"
   borderopacity="1"
   objecttolerance="10"
   gridtolerance="10"
   guidetolerance="10"
   inkscape:pageopacity="0"
   inkscape:pageshadow="2"
   inkscape:window-width="1920"
   inkscape:window-height="1027"
   id="namedview79"
   showgrid="false"
   units="px"
   inkscape:pagecheckerboard="true"
   inkscape:zoom="2.6256746"
   inkscape:cx="65.960481"
   inkscape:cy="51.873717"
   inkscape:window-x="-8"
   inkscape:window-y="-8"
   inkscape:window-maximized="1"
   inkscape:current-layer="svg77"
   inkscape:document-rotation="0" />
 <defs
   id="defs4">
  <style
   type="text/css"
   id="style2">
   <![CDATA[
    .fil0 {fill:white}
   ]]>
  </style>
 </defs>
 <g
   id="Layer_x0020_1"
   transform="matrix(0.10568986,0,0,0.11273581,-1230.3839,-489.87834)">
  <metadata
   id="CorelCorpID_0Corel-Layer" />
  <g
   id="_2224889979984">
   <g
   id="g11">
    <g
   id="g9">
     <path
   class="fil0"
   d="m 30068.51,10916.63 h -9301.08 c -513.68,0 -930.11,416.43 -930.11,930.11 0,513.68 416.43,930.11 930.11,930.11 h 9301.08 c 513.68,0 930.11,-416.43 930.11,-930.11 0,-513.68 -416.43,-930.11 -930.11,-930.11 z"
   id="path7" />
    </g>
   </g>
   <g
   id="g17">
    <g
   id="g15">
     <path
   class="fil0"
   d="m 18907.21,11846.74 c -1.04,-246.28 -99.72,-482.09 -274.38,-655.73 -362.77,-360.62 -948.68,-360.62 -1311.45,0 -174.68,173.64 -273.36,409.45 -274.38,655.73 -6.94,60.25 -6.94,121.11 0,181.37 10.52,60.6 27.67,119.87 51.16,176.72 24.97,55.08 54.53,107.98 88.36,158.11 33.4,52.15 72.37,100.48 116.26,144.17 42.32,42.15 89.09,79.59 139.52,111.61 48.98,35.67 102.08,65.35 158.12,88.36 61.64,31.98 127.36,55.46 195.32,69.76 60.26,6.74 121.12,6.74 181.37,0 245.61,0.21 481.33,-96.76 655.73,-269.73 43.89,-43.69 82.86,-92.02 116.26,-144.17 33.84,-50.13 63.39,-103.04 88.36,-158.11 29.68,-56.16 53.08,-115.42 69.76,-176.72 6.94,-60.25 6.94,-121.12 -0.01,-181.37 z"
   id="path13" />
    </g>
   </g>
   <g
   id="g23">
    <g
   id="g21">
     <path
   class="fil0"
   d="m 18907.21,16032.22 c 6.92,-60.25 6.92,-121.11 0,-181.37 -16.07,-60.02 -39.49,-117.8 -69.75,-172.07 -23.95,-57.06 -53.57,-111.58 -88.36,-162.77 -32.24,-51.56 -71.36,-98.5 -116.27,-139.52 -362.77,-360.62 -948.68,-360.62 -1311.45,0 -174.68,173.65 -273.36,409.46 -274.38,655.73 1.81,122.57 25.44,243.81 69.76,358.1 23.31,55.02 51.33,107.92 83.71,158.11 35.37,50.55 75.89,97.31 120.91,139.52 41.1,44.82 88.02,83.94 139.52,116.26 48.98,35.7 102.05,65.37 158.12,88.36 56.7,23.87 116.03,41.04 176.72,51.16 59.49,13.34 120.39,19.59 181.37,18.6 60.25,6.95 121.11,6.95 181.37,0 59.17,-10.15 116.96,-27.32 172.07,-51.16 57.58,-22.84 112.22,-52.52 162.77,-88.36 51.5,-32.32 98.42,-71.44 139.51,-116.26 44.83,-41.1 83.95,-88.01 116.27,-139.52 35.75,-48.94 65.42,-102.02 88.36,-158.11 31.77,-61.74 55.22,-127.43 69.75,-195.33 7.16,-60.25 7.16,-121.11 0,-181.37 z"
   id="path19" />
    </g>
   </g>
   <g
   id="g29">
    <g
   id="g27">
     <path
   class="fil0"
   d="m 18907.21,20217.7 c 6.89,-60.25 6.89,-121.11 0,-181.37 -16.07,-61.5 -39.49,-120.82 -69.75,-176.71 -24.97,-55.09 -54.53,-107.98 -88.36,-158.12 -32.32,-51.5 -71.44,-98.42 -116.27,-139.52 -362.77,-360.62 -948.68,-360.62 -1311.45,0 -44.82,41.1 -83.94,88.02 -116.26,139.52 -33.83,50.14 -63.39,103.04 -88.36,158.12 -24.12,56.62 -41.3,115.97 -51.16,176.71 -13.1,59.56 -19.32,120.39 -18.6,181.37 1.05,246.28 99.73,482.09 274.38,655.73 41.1,44.82 88.02,83.95 139.52,116.27 48.98,35.69 102.05,65.36 158.12,88.36 56.7,23.86 116.03,41.04 176.72,51.15 59.49,13.35 120.39,19.59 181.37,18.6 60.25,6.95 121.11,6.95 181.37,0 59.17,-10.14 116.96,-27.32 172.07,-51.15 57.58,-22.85 112.22,-52.52 162.77,-88.36 51.5,-32.32 98.42,-71.45 139.51,-116.27 44.83,-41.09 83.95,-88.01 116.27,-139.51 35.78,-48.92 65.45,-102.03 88.36,-158.12 31.74,-61.76 55.19,-127.43 69.75,-195.33 7.16,-60.25 7.16,-121.11 0,-181.37 z"
   id="path25" />
    </g>
   </g>
   <g
   id="g35">
    <g
   id="g33">
     <path
   class="fil0"
   d="M 30998.61,15102.11 H 20767.43 c -513.68,0 -930.11,416.43 -930.11,930.11 0,513.68 416.43,930.11 930.11,930.11 h 10231.18 c 513.68,0 930.11,-416.43 930.11,-930.11 0,-513.68 -416.43,-930.11 -930.11,-930.11 z"
   id="path31" />
    </g>
   </g>
   <g
   id="g41">
    <g
   id="g39">
     <path
   class="fil0"
   d="m 26813.13,19287.6 h -6045.7 c -513.68,0 -930.11,416.42 -930.11,930.1 0,513.68 416.43,930.11 930.11,930.11 h 6045.7 c 513.68,0 930.11,-416.43 930.11,-930.11 0,-513.68 -416.43,-930.1 -930.11,-930.1 z"
   id="path37" />
    </g>
   </g>
   <g
   id="g43">
   </g>
   <g
   id="g45">
   </g>
   <g
   id="g47">
   </g>
   <g
   id="g49">
   </g>
   <g
   id="g51">
   </g>
   <g
   id="g53">
   </g>
   <g
   id="g55">
   </g>
   <g
   id="g57">
   </g>
   <g
   id="g59">
   </g>
   <g
   id="g61">
   </g>
   <g
   id="g63">
   </g>
   <g
   id="g65">
   </g>
   <g
   id="g67">
   </g>
   <g
   id="g69">
   </g>
   <g
   id="g71">
   </g>
  </g>
  <path
   class="fil0"
   d="M 15628.09,21210.17 V 11089.03 c 0,-1901.42 1335.75,-3153.69 3363.94,-3153.69 h 10795.88 c 2028.18,0 3363.94,1252.27 3363.94,3153.69 v 10121.14 c 0,1901.42 -1335.76,3153.69 -3363.94,3153.69 H 18992.03 c -2028.19,0 -3363.94,-1252.27 -3363.94,-3153.69 z m -1251.7,-10561.2 v 11001.26 c 0,1226.62 799.1,2415.26 1826.57,3128.13 l 663.47,368.1 c 372.07,175.86 1117.81,390.87 1656.2,390.87 H 30257.3 c 1308.4,0 2576.28,-749.16 3336.68,-1712.41 437.99,-554.83 809.56,-1459.6 809.56,-2174.69 V 10648.97 c 0,-579.08 -300.26,-1440.14 -594.09,-1863.31 -378.32,-544.88 -653.17,-862.9 -1232.47,-1264.82 -591.82,-410.62 -1556.91,-758.97 -2319.68,-758.97 H 18522.63 c -538.39,0 -1284.13,215.01 -1656.2,390.87 -947.91,447.96 -1595.48,1055.26 -2073.12,1943.54 -187.57,348.82 -416.92,1047.95 -416.92,1552.69 z"
   id="path74" />
 </g>
</svg>
