<?xml version="1.0" encoding="UTF-8" standalone="no"?>
<svg
   xmlns:dc="http://purl.org/dc/elements/1.1/"
   xmlns:cc="http://creativecommons.org/ns#"
   xmlns:rdf="http://www.w3.org/1999/02/22-rdf-syntax-ns#"
   xmlns:svg="http://www.w3.org/2000/svg"
   xmlns="http://www.w3.org/2000/svg"
   xmlns:sodipodi="http://sodipodi.sourceforge.net/DTD/sodipodi-0.dtd"
   xmlns:inkscape="http://www.inkscape.org/namespaces/inkscape"
   version="1.1"
   id="Layer_1"
   x="0px"
   y="0px"
   viewBox="0 0 100 70"
   xml:space="preserve"
   sodipodi:docname="vehicleArrowOpaque.svg"
   width="100"
   height="70"
   inkscape:version="1.0.2-2 (e86c870879, 2021-01-15)"><metadata
   id="metadata23"><rdf:RDF><cc:Work
       rdf:about=""><dc:format>image/svg+xml</dc:format><dc:type
         rdf:resource="http://purl.org/dc/dcmitype/StillImage" /><dc:title></dc:title></cc:Work></rdf:RDF></metadata><defs
   id="defs21"><style
     type="text/css"
     id="style848">
   <![CDATA[
    .str0 {stroke:white;stroke-width:1300;stroke-miterlimit:2.61313}
    .fil0 {fill:#FF8303}
   ]]>
  </style></defs><sodipodi:namedview
   pagecolor="#ffffff"
   bordercolor="#666666"
   borderopacity="1"
   objecttolerance="10"
   gridtolerance="10"
   guidetolerance="10"
   inkscape:pageopacity="0"
   inkscape:pageshadow="2"
   inkscape:window-width="1920"
   inkscape:window-height="1027"
   id="namedview19"
   showgrid="false"
   inkscape:pagecheckerboard="true"
   inkscape:zoom="2.9861111"
   inkscape:cx="51.980584"
   inkscape:cy="23.846437"
   inkscape:window-x="-8"
   inkscape:window-y="-8"
   inkscape:window-maximized="1"
   inkscape:current-layer="Layer_1"
   inkscape:document-rotation="0" />
<style
   type="text/css"
   id="style2">
	.st0{fill:#C72B27;}
	.st1{fill:#7F0036;}
	.st2{fill:#EE3424;}
</style>

<g
   style="clip-rule:evenodd;fill-rule:evenodd;stroke-width:0;stroke-miterlimit:4;stroke-dasharray:none;image-rendering:optimizeQuality;shape-rendering:geometricPrecision;text-rendering:geometricPrecision"
   id="g866"
   transform="matrix(0.00335186,0,0,0.00382569,-84.02555,-39.923012)"><g
     id="Layer_x0020_1"
     style="stroke-width:0;stroke-miterlimit:4;stroke-dasharray:none">
  <metadata
   id="CorelCorpID_0Corel-Layer" />
  <path
   class="fil0 str0"
   d="m 42712.32,12799.89 c 0,0 -1164.18,-2063.01 -2809,-2115.18 -1644.83,-52.16 -2671.32,2067.24 -2671.32,2067.24 l -11626.39,8330.11 c 0,0 -347.6,305.39 -347.72,433.06 -0.11,127.67 -5.49,7278.61 -5.49,7278.61 0,0 30.37,341.25 568.62,39.01 538.24,-302.24 10314.92,-5698.37 10314.92,-5698.37 0,0 202.43,-100.73 100.22,-280.62 -102.22,-179.89 -1199.42,-1444.85 333.01,-2057.34 1532.43,-612.49 1731.08,-590.01 1731.08,-590.01 0,0 373.05,1131.28 606.6,1133.23 233.54,1.94 2015.65,82.14 2134.28,-27.51 118.63,-109.65 674.72,-1251.47 630.79,-1434.91 -43.93,-183.43 1777.64,952.09 1777.64,952.09 0,0 1077.47,485.96 583.38,1384.91 -494.09,898.94 -300.99,539.62 -300.99,539.62 0,0 -296.97,270.61 161.71,423.73 458.68,153.12 10516.72,5821.97 10516.72,5821.97 0,0 269.87,247.85 269.35,-265.4 -0.51,-513.25 -6.8,-7044.44 -6.8,-7044.44 0,0 14.52,-338.45 -536.19,-729.23 -550.72,-390.79 -11424.42,-8160.57 -11424.42,-8160.57 z"
   id="path853"
   style="stroke-width:0;stroke-miterlimit:4;stroke-dasharray:none" />
 </g></g></svg>
